<svg width="1262" height="83" viewBox="0 0 1262 83" fill="none" xmlns="http://www.w3.org/2000/svg">
<rect x="1" y="1" width="1260" height="81" rx="40.5" fill="#75654B" stroke="#F7E0A2" stroke-width="2"/>
<path d="M39.8985 52V33.8182H46.0419C47.4624 33.8182 48.6284 34.0608 49.5398 34.5462C50.4513 35.0256 51.126 35.6855 51.564 36.5259C52.0019 37.3664 52.2209 38.3222 52.2209 39.3935C52.2209 40.4647 52.0019 41.4147 51.564 42.2433C51.126 43.0719 50.4542 43.7229 49.5487 44.1964C48.6432 44.6639 47.4861 44.8977 46.0775 44.8977H41.1059V42.9091H46.0064C46.9771 42.9091 47.7583 42.767 48.3502 42.483C48.948 42.1989 49.38 41.7964 49.6464 41.2756C49.9186 40.7488 50.0547 40.1214 50.0547 39.3935C50.0547 38.6655 49.9186 38.0292 49.6464 37.4847C49.3741 36.9402 48.9391 36.52 48.3413 36.2241C47.7435 35.9222 46.9534 35.7713 45.9709 35.7713H42.1002V52H39.8985ZM48.4567 43.8324L52.9312 52H50.3743L45.9709 43.8324H48.4567ZM55.8897 52V33.8182H66.8627V35.7713H58.0914V41.9148H66.2945V43.8679H58.0914V50.0469H67.0048V52H55.8897ZM71.5768 52H69.2686L75.9447 33.8182H78.2175L84.8936 52H82.5854L77.1521 36.6946H77.0101L71.5768 52ZM72.4291 44.8977H81.7331V46.8509H72.4291V44.8977ZM101.502 39.5H99.3001C99.1699 38.8667 98.942 38.3104 98.6165 37.831C98.2969 37.3516 97.9063 36.9491 97.4446 36.6236C96.9889 36.2921 96.4829 36.0436 95.9265 35.8778C95.3702 35.7121 94.7902 35.6293 94.1865 35.6293C93.0856 35.6293 92.0883 35.9074 91.1946 36.4638C90.3069 37.0201 89.5996 37.8398 89.0728 38.9229C88.552 40.006 88.2916 41.3348 88.2916 42.9091C88.2916 44.4834 88.552 45.8121 89.0728 46.8952C89.5996 47.9783 90.3069 48.7981 91.1946 49.3544C92.0883 49.9107 93.0856 50.1889 94.1865 50.1889C94.7902 50.1889 95.3702 50.1061 95.9265 49.9403C96.4829 49.7746 96.9889 49.529 97.4446 49.2035C97.9063 48.872 98.2969 48.4666 98.6165 47.9872C98.942 47.5019 99.1699 46.9455 99.3001 46.3182H101.502C101.336 47.2474 101.034 48.079 100.596 48.8129C100.158 49.5468 99.6138 50.1712 98.9628 50.6861C98.3117 51.1951 97.5808 51.5827 96.7699 51.8491C95.965 52.1154 95.1039 52.2486 94.1865 52.2486C92.6358 52.2486 91.2568 51.8698 90.0494 51.1122C88.842 50.3546 87.8921 49.2775 87.1996 47.8807C86.5071 46.4839 86.1609 44.8267 86.1609 42.9091C86.1609 40.9915 86.5071 39.3343 87.1996 37.9375C87.8921 36.5407 88.842 35.4635 90.0494 34.706C91.2568 33.9484 92.6358 33.5696 94.1865 33.5696C95.1039 33.5696 95.965 33.7028 96.7699 33.9691C97.5808 34.2354 98.3117 34.6261 98.9628 35.141C99.6138 35.65 100.158 36.2714 100.596 37.0053C101.034 37.7333 101.336 38.5649 101.502 39.5ZM104.065 35.7713V33.8182H117.702V35.7713H111.984V52H109.783V35.7713H104.065ZM121.488 52.142C121.05 52.142 120.674 51.9852 120.361 51.6715C120.047 51.3578 119.89 50.982 119.89 50.544C119.89 50.1061 120.047 49.7302 120.361 49.4165C120.674 49.1029 121.05 48.946 121.488 48.946C121.926 48.946 122.302 49.1029 122.616 49.4165C122.929 49.7302 123.086 50.1061 123.086 50.544C123.086 50.834 123.012 51.1004 122.864 51.343C122.722 51.5857 122.53 51.781 122.287 51.929C122.05 52.071 121.784 52.142 121.488 52.142ZM134.09 33.8182H136.292V46.8153C136.292 47.9754 136.079 48.9608 135.653 49.7717C135.227 50.5825 134.626 51.198 133.85 51.6183C133.075 52.0385 132.161 52.2486 131.107 52.2486C130.113 52.2486 129.228 52.0681 128.453 51.707C127.677 51.3401 127.068 50.8192 126.624 50.1445C126.18 49.4698 125.958 48.6679 125.958 47.7386H128.124C128.124 48.2536 128.251 48.7034 128.506 49.0881C128.766 49.4669 129.122 49.7628 129.571 49.9759C130.021 50.1889 130.533 50.2955 131.107 50.2955C131.74 50.2955 132.279 50.1623 132.723 49.896C133.167 49.6296 133.504 49.239 133.735 48.7241C133.972 48.2032 134.09 47.567 134.09 46.8153V33.8182ZM150.647 38.3636C150.541 37.464 150.109 36.7656 149.351 36.2685C148.594 35.7713 147.664 35.5227 146.564 35.5227C145.759 35.5227 145.054 35.6529 144.451 35.9134C143.853 36.1738 143.385 36.5318 143.048 36.9876C142.716 37.4433 142.551 37.9612 142.551 38.5412C142.551 39.0265 142.666 39.4438 142.897 39.793C143.134 40.1362 143.436 40.4233 143.803 40.6541C144.169 40.879 144.554 41.0655 144.957 41.2134C145.359 41.3555 145.729 41.4709 146.066 41.5597L147.913 42.0568C148.386 42.1811 148.913 42.3527 149.493 42.5717C150.079 42.7907 150.638 43.0896 151.171 43.4684C151.71 43.8413 152.154 44.3207 152.503 44.9066C152.852 45.4925 153.027 46.2116 153.027 47.0639C153.027 48.0464 152.769 48.9342 152.254 49.7273C151.745 50.5204 150.999 51.1507 150.017 51.6183C149.04 52.0858 147.854 52.3196 146.457 52.3196C145.155 52.3196 144.027 52.1095 143.075 51.6893C142.128 51.2691 141.382 50.6831 140.837 49.9315C140.299 49.1798 139.994 48.3068 139.923 47.3125H142.196C142.255 47.9991 142.486 48.5672 142.888 49.017C143.296 49.4609 143.811 49.7924 144.433 50.0114C145.06 50.2244 145.735 50.331 146.457 50.331C147.297 50.331 148.052 50.1948 148.721 49.9226C149.39 49.6444 149.919 49.2597 150.31 48.7685C150.701 48.2713 150.896 47.6913 150.896 47.0284C150.896 46.4247 150.727 45.9335 150.39 45.5547C150.053 45.1759 149.609 44.8681 149.058 44.6314C148.508 44.3946 147.913 44.1875 147.274 44.0099L145.037 43.3707C143.616 42.9624 142.492 42.3794 141.663 41.6218C140.834 40.8642 140.42 39.8729 140.42 38.6477C140.42 37.6297 140.695 36.742 141.246 35.9844C141.802 35.2209 142.548 34.629 143.483 34.2088C144.424 33.7827 145.475 33.5696 146.635 33.5696C147.806 33.5696 148.848 33.7797 149.76 34.1999C150.671 34.6142 151.393 35.1824 151.926 35.9045C152.464 36.6265 152.748 37.4463 152.778 38.3636H150.647ZM169.289 52H163.678V33.8182H169.537C171.301 33.8182 172.81 34.1822 174.065 34.9102C175.32 35.6322 176.281 36.6709 176.95 38.0263C177.619 39.3757 177.953 40.9915 177.953 42.8736C177.953 44.7675 177.616 46.3981 176.941 47.7653C176.267 49.1265 175.284 50.1741 173.994 50.908C172.704 51.636 171.135 52 169.289 52ZM165.879 50.0469H169.147C170.65 50.0469 171.896 49.7569 172.884 49.1768C173.872 48.5968 174.609 47.7712 175.095 46.6999C175.58 45.6287 175.823 44.3532 175.823 42.8736C175.823 41.4058 175.583 40.1422 175.104 39.0827C174.624 38.0174 173.908 37.2006 172.955 36.6325C172.002 36.0584 170.816 35.7713 169.395 35.7713H165.879V50.0469ZM181.647 52V33.8182H192.62V35.7713H183.848V41.9148H192.051V43.8679H183.848V50.0469H192.762V52H181.647ZM197.334 33.8182L202.731 49.1236H202.944L208.342 33.8182H210.65L203.974 52H201.702L195.025 33.8182H197.334ZM213.482 52V33.8182H224.455V35.7713H215.684V41.9148H223.887V43.8679H215.684V50.0469H224.598V52H213.482ZM228.424 52V33.8182H230.626V50.0469H239.077V52H228.424ZM257.119 42.9091C257.119 44.8267 256.773 46.4839 256.081 47.8807C255.388 49.2775 254.438 50.3546 253.231 51.1122C252.023 51.8698 250.644 52.2486 249.094 52.2486C247.543 52.2486 246.164 51.8698 244.957 51.1122C243.749 50.3546 242.799 49.2775 242.107 47.8807C241.414 46.4839 241.068 44.8267 241.068 42.9091C241.068 40.9915 241.414 39.3343 242.107 37.9375C242.799 36.5407 243.749 35.4635 244.957 34.706C246.164 33.9484 247.543 33.5696 249.094 33.5696C250.644 33.5696 252.023 33.9484 253.231 34.706C254.438 35.4635 255.388 36.5407 256.081 37.9375C256.773 39.3343 257.119 40.9915 257.119 42.9091ZM254.989 42.9091C254.989 41.3348 254.725 40.006 254.198 38.9229C253.678 37.8398 252.97 37.0201 252.077 36.4638C251.189 35.9074 250.195 35.6293 249.094 35.6293C247.993 35.6293 246.996 35.9074 246.102 36.4638C245.214 37.0201 244.507 37.8398 243.98 38.9229C243.459 40.006 243.199 41.3348 243.199 42.9091C243.199 44.4834 243.459 45.8121 243.98 46.8952C244.507 47.9783 245.214 48.7981 246.102 49.3544C246.996 49.9107 247.993 50.1889 249.094 50.1889C250.195 50.1889 251.189 49.9107 252.077 49.3544C252.97 48.7981 253.678 47.9783 254.198 46.8952C254.725 45.8121 254.989 44.4834 254.989 42.9091ZM260.821 52V33.8182H266.965C268.391 33.8182 269.557 34.0756 270.463 34.5906C271.374 35.0996 272.049 35.7891 272.487 36.6591C272.925 37.5291 273.144 38.4998 273.144 39.571C273.144 40.6423 272.925 41.6159 272.487 42.4918C272.055 43.3678 271.386 44.0662 270.48 44.587C269.575 45.1019 268.415 45.3594 267 45.3594H262.597V43.4062H266.929C267.906 43.4062 268.69 43.2376 269.282 42.9002C269.874 42.5629 270.303 42.1071 270.569 41.533C270.841 40.953 270.978 40.299 270.978 39.571C270.978 38.843 270.841 38.192 270.569 37.6179C270.303 37.0438 269.871 36.594 269.273 36.2685C268.675 35.937 267.882 35.7713 266.894 35.7713H263.023V52H260.821ZM276.69 52V33.8182H287.663V35.7713H278.892V41.9148H287.095V43.8679H278.892V50.0469H287.806V52H276.69ZM291.632 52V33.8182H297.775C299.196 33.8182 300.362 34.0608 301.273 34.5462C302.185 35.0256 302.859 35.6855 303.297 36.5259C303.735 37.3664 303.954 38.3222 303.954 39.3935C303.954 40.4647 303.735 41.4147 303.297 42.2433C302.859 43.0719 302.188 43.7229 301.282 44.1964C300.377 44.6639 299.219 44.8977 297.811 44.8977H292.839V42.9091H297.74C298.71 42.9091 299.492 42.767 300.084 42.483C300.681 42.1989 301.113 41.7964 301.38 41.2756C301.652 40.7488 301.788 40.1214 301.788 39.3935C301.788 38.6655 301.652 38.0292 301.38 37.4847C301.107 36.9402 300.672 36.52 300.075 36.2241C299.477 35.9222 298.687 35.7713 297.704 35.7713H293.834V52H291.632ZM300.19 43.8324L304.665 52H302.108L297.704 43.8324H300.19ZM319.825 23.1506V59.0312H317.694V23.1506H319.825ZM334.313 33.8182H336.94L343.119 48.9105H343.332L349.511 33.8182H352.139V52H350.08V38.1861H349.902L344.22 52H342.232L336.55 38.1861H336.372V52H334.313V33.8182ZM357.797 52.142C357.359 52.142 356.983 51.9852 356.669 51.6715C356.355 51.3578 356.199 50.982 356.199 50.544C356.199 50.1061 356.355 49.7302 356.669 49.4165C356.983 49.1029 357.359 48.946 357.797 48.946C358.235 48.946 358.61 49.1029 358.924 49.4165C359.238 49.7302 359.395 50.1061 359.395 50.544C359.395 50.834 359.321 51.1004 359.173 51.343C359.031 51.5857 358.838 51.781 358.596 51.929C358.359 52.071 358.093 52.142 357.797 52.142ZM363.439 52V33.8182H374.412V35.7713H365.64V41.9148H373.843V43.8679H365.64V50.0469H374.554V52H363.439ZM379.623 52.142C379.185 52.142 378.809 51.9852 378.495 51.6715C378.182 51.3578 378.025 50.982 378.025 50.544C378.025 50.1061 378.182 49.7302 378.495 49.4165C378.809 49.1029 379.185 48.946 379.623 48.946C380.061 48.946 380.437 49.1029 380.75 49.4165C381.064 49.7302 381.221 50.1061 381.221 50.544C381.221 50.834 381.147 51.1004 380.999 51.343C380.857 51.5857 380.664 51.781 380.422 51.929C380.185 52.071 379.919 52.142 379.623 52.142ZM385.265 52V33.8182H391.408C392.829 33.8182 393.995 34.0608 394.906 34.5462C395.817 35.0256 396.492 35.6855 396.93 36.5259C397.368 37.3664 397.587 38.3222 397.587 39.3935C397.587 40.4647 397.368 41.4147 396.93 42.2433C396.492 43.0719 395.82 43.7229 394.915 44.1964C394.009 44.6639 392.852 44.8977 391.444 44.8977H386.472V42.9091H391.373C392.343 42.9091 393.125 42.767 393.716 42.483C394.314 42.1989 394.746 41.7964 395.013 41.2756C395.285 40.7488 395.421 40.1214 395.421 39.3935C395.421 38.6655 395.285 38.0292 395.013 37.4847C394.74 36.9402 394.305 36.52 393.708 36.2241C393.11 35.9222 392.32 35.7713 391.337 35.7713H387.466V52H385.265ZM393.823 43.8324L398.297 52H395.741L391.337 43.8324H393.823ZM402.499 52.142C402.061 52.142 401.685 51.9852 401.371 51.6715C401.058 51.3578 400.901 50.982 400.901 50.544C400.901 50.1061 401.058 49.7302 401.371 49.4165C401.685 49.1029 402.061 48.946 402.499 48.946C402.937 48.946 403.313 49.1029 403.626 49.4165C403.94 49.7302 404.097 50.1061 404.097 50.544C404.097 50.834 404.023 51.1004 403.875 51.343C403.733 51.5857 403.54 51.781 403.298 51.929C403.061 52.071 402.795 52.142 402.499 52.142ZM422.558 33.8182V52H420.428L410.52 37.7244H410.342V52H408.141V33.8182H410.271L420.215 48.1293H420.392V33.8182H422.558ZM443.938 38.3636C443.832 37.464 443.4 36.7656 442.642 36.2685C441.885 35.7713 440.955 35.5227 439.855 35.5227C439.05 35.5227 438.345 35.6529 437.742 35.9134C437.144 36.1738 436.676 36.5318 436.339 36.9876C436.007 37.4433 435.842 37.9612 435.842 38.5412C435.842 39.0265 435.957 39.4438 436.188 39.793C436.425 40.1362 436.727 40.4233 437.094 40.6541C437.46 40.879 437.845 41.0655 438.248 41.2134C438.65 41.3555 439.02 41.4709 439.357 41.5597L441.204 42.0568C441.677 42.1811 442.204 42.3527 442.784 42.5717C443.37 42.7907 443.929 43.0896 444.462 43.4684C445.001 43.8413 445.445 44.3207 445.794 44.9066C446.143 45.4925 446.318 46.2116 446.318 47.0639C446.318 48.0464 446.06 48.9342 445.545 49.7273C445.036 50.5204 444.29 51.1507 443.308 51.6183C442.331 52.0858 441.145 52.3196 439.748 52.3196C438.446 52.3196 437.318 52.1095 436.366 51.6893C435.419 51.2691 434.673 50.6831 434.128 49.9315C433.59 49.1798 433.285 48.3068 433.214 47.3125H435.487C435.546 47.9991 435.777 48.5672 436.179 49.017C436.587 49.4609 437.102 49.7924 437.724 50.0114C438.351 50.2244 439.026 50.331 439.748 50.331C440.588 50.331 441.343 50.1948 442.012 49.9226C442.681 49.6444 443.21 49.2597 443.601 48.7685C443.992 48.2713 444.187 47.6913 444.187 47.0284C444.187 46.4247 444.018 45.9335 443.681 45.5547C443.344 45.1759 442.9 44.8681 442.349 44.6314C441.799 44.3946 441.204 44.1875 440.565 44.0099L438.328 43.3707C436.907 42.9624 435.783 42.3794 434.954 41.6218C434.125 40.8642 433.711 39.8729 433.711 38.6477C433.711 37.6297 433.986 36.742 434.537 35.9844C435.093 35.2209 435.839 34.629 436.774 34.2088C437.715 33.7827 438.766 33.5696 439.926 33.5696C441.097 33.5696 442.139 33.7797 443.051 34.1999C443.962 34.6142 444.684 35.1824 445.217 35.9045C445.755 36.6265 446.039 37.4463 446.069 38.3636H443.938ZM448.943 35.7713V33.8182H462.58V35.7713H456.862V52H454.661V35.7713H448.943ZM464.599 52H462.291L468.967 33.8182H471.24L477.916 52H475.608L470.175 36.6946H470.033L464.599 52ZM465.452 44.8977H474.756V46.8509H465.452V44.8977ZM494.524 39.5H492.323C492.192 38.8667 491.965 38.3104 491.639 37.831C491.319 37.3516 490.929 36.9491 490.467 36.6236C490.011 36.2921 489.505 36.0436 488.949 35.8778C488.393 35.7121 487.813 35.6293 487.209 35.6293C486.108 35.6293 485.111 35.9074 484.217 36.4638C483.329 37.0201 482.622 37.8398 482.095 38.9229C481.574 40.006 481.314 41.3348 481.314 42.9091C481.314 44.4834 481.574 45.8121 482.095 46.8952C482.622 47.9783 483.329 48.7981 484.217 49.3544C485.111 49.9107 486.108 50.1889 487.209 50.1889C487.813 50.1889 488.393 50.1061 488.949 49.9403C489.505 49.7746 490.011 49.529 490.467 49.2035C490.929 48.872 491.319 48.4666 491.639 47.9872C491.965 47.5019 492.192 46.9455 492.323 46.3182H494.524C494.359 47.2474 494.057 48.079 493.619 48.8129C493.181 49.5468 492.636 50.1712 491.985 50.6861C491.334 51.1951 490.603 51.5827 489.792 51.8491C488.987 52.1154 488.126 52.2486 487.209 52.2486C485.658 52.2486 484.279 51.8698 483.072 51.1122C481.864 50.3546 480.915 49.2775 480.222 47.8807C479.53 46.4839 479.183 44.8267 479.183 42.9091C479.183 40.9915 479.53 39.3343 480.222 37.9375C480.915 36.5407 481.864 35.4635 483.072 34.706C484.279 33.9484 485.658 33.5696 487.209 33.5696C488.126 33.5696 488.987 33.7028 489.792 33.9691C490.603 34.2354 491.334 34.6261 491.985 35.141C492.636 35.65 493.181 36.2714 493.619 37.0053C494.057 37.7333 494.359 38.5649 494.524 39.5ZM498.082 52V33.8182H500.284V42.8381H500.497L508.664 33.8182H511.541L503.906 42.0213L511.541 52H508.878L502.557 43.5483L500.284 46.1051V52H498.082ZM527.033 52H521.422V33.8182H527.281C529.045 33.8182 530.554 34.1822 531.809 34.9102C533.064 35.6322 534.025 36.6709 534.694 38.0263C535.363 39.3757 535.697 40.9915 535.697 42.8736C535.697 44.7675 535.36 46.3981 534.685 47.7653C534.011 49.1265 533.028 50.1741 531.738 50.908C530.448 51.636 528.879 52 527.033 52ZM523.624 50.0469H526.891C528.394 50.0469 529.64 49.7569 530.628 49.1768C531.617 48.5968 532.354 47.7712 532.839 46.6999C533.324 45.6287 533.567 44.3532 533.567 42.8736C533.567 41.4058 533.327 40.1422 532.848 39.0827C532.368 38.0174 531.652 37.2006 530.699 36.6325C529.746 36.0584 528.56 35.7713 527.139 35.7713H523.624V50.0469ZM539.391 52V33.8182H550.364V35.7713H541.592V41.9148H549.795V43.8679H541.592V50.0469H550.506V52H539.391ZM555.078 33.8182L560.476 49.1236H560.689L566.086 33.8182H568.395L561.718 52H559.446L552.77 33.8182H555.078ZM571.227 52V33.8182H582.2V35.7713H573.428V41.9148H581.631V43.8679H573.428V50.0469H582.342V52H571.227ZM586.168 52V33.8182H588.37V50.0469H596.821V52H586.168ZM614.863 42.9091C614.863 44.8267 614.517 46.4839 613.825 47.8807C613.132 49.2775 612.182 50.3546 610.975 51.1122C609.768 51.8698 608.389 52.2486 606.838 52.2486C605.287 52.2486 603.908 51.8698 602.701 51.1122C601.493 50.3546 600.543 49.2775 599.851 47.8807C599.159 46.4839 598.812 44.8267 598.812 42.9091C598.812 40.9915 599.159 39.3343 599.851 37.9375C600.543 36.5407 601.493 35.4635 602.701 34.706C603.908 33.9484 605.287 33.5696 606.838 33.5696C608.389 33.5696 609.768 33.9484 610.975 34.706C612.182 35.4635 613.132 36.5407 613.825 37.9375C614.517 39.3343 614.863 40.9915 614.863 42.9091ZM612.733 42.9091C612.733 41.3348 612.469 40.006 611.943 38.9229C611.422 37.8398 610.715 37.0201 609.821 36.4638C608.933 35.9074 607.939 35.6293 606.838 35.6293C605.737 35.6293 604.74 35.9074 603.846 36.4638C602.958 37.0201 602.251 37.8398 601.724 38.9229C601.203 40.006 600.943 41.3348 600.943 42.9091C600.943 44.4834 601.203 45.8121 601.724 46.8952C602.251 47.9783 602.958 48.7981 603.846 49.3544C604.74 49.9107 605.737 50.1889 606.838 50.1889C607.939 50.1889 608.933 49.9107 609.821 49.3544C610.715 48.7981 611.422 47.9783 611.943 46.8952C612.469 45.8121 612.733 44.4834 612.733 42.9091ZM618.565 52V33.8182H624.709C626.135 33.8182 627.301 34.0756 628.207 34.5906C629.118 35.0996 629.793 35.7891 630.231 36.6591C630.669 37.5291 630.888 38.4998 630.888 39.571C630.888 40.6423 630.669 41.6159 630.231 42.4918C629.799 43.3678 629.13 44.0662 628.225 44.587C627.319 45.1019 626.159 45.3594 624.744 45.3594H620.341V43.4062H624.673C625.65 43.4062 626.434 43.2376 627.026 42.9002C627.618 42.5629 628.047 42.1071 628.313 41.533C628.586 40.953 628.722 40.299 628.722 39.571C628.722 38.843 628.586 38.192 628.313 37.6179C628.047 37.0438 627.615 36.594 627.017 36.2685C626.419 35.937 625.626 35.7713 624.638 35.7713H620.767V52H618.565ZM634.435 52V33.8182H645.408V35.7713H636.636V41.9148H644.839V43.8679H636.636V50.0469H645.55V52H634.435ZM649.376 52V33.8182H655.519C656.94 33.8182 658.106 34.0608 659.017 34.5462C659.929 35.0256 660.604 35.6855 661.042 36.5259C661.479 37.3664 661.698 38.3222 661.698 39.3935C661.698 40.4647 661.479 41.4147 661.042 42.2433C660.604 43.0719 659.932 43.7229 659.026 44.1964C658.121 44.6639 656.964 44.8977 655.555 44.8977H650.583V42.9091H655.484C656.455 42.9091 657.236 42.767 657.828 42.483C658.426 42.1989 658.858 41.7964 659.124 41.2756C659.396 40.7488 659.532 40.1214 659.532 39.3935C659.532 38.6655 659.396 38.0292 659.124 37.4847C658.852 36.9402 658.417 36.52 657.819 36.2241C657.221 35.9222 656.431 35.7713 655.448 35.7713H651.578V52H649.376ZM657.934 43.8324L662.409 52H659.852L655.448 43.8324H657.934ZM676.163 23.1506V59.0312H674.032V23.1506H676.163ZM696.204 33.8182H698.406V46.8153C698.406 47.9754 698.193 48.9608 697.767 49.7717C697.341 50.5825 696.74 51.198 695.965 51.6183C695.189 52.0385 694.275 52.2486 693.221 52.2486C692.227 52.2486 691.342 52.0681 690.567 51.707C689.792 51.3401 689.182 50.8192 688.738 50.1445C688.294 49.4698 688.072 48.6679 688.072 47.7386H690.239C690.239 48.2536 690.366 48.7034 690.62 49.0881C690.881 49.4669 691.236 49.7628 691.686 49.9759C692.135 50.1889 692.647 50.2955 693.221 50.2955C693.855 50.2955 694.393 50.1623 694.837 49.896C695.281 49.6296 695.618 49.239 695.849 48.7241C696.086 48.2032 696.204 47.567 696.204 46.8153V33.8182ZM703.564 52H701.256L707.932 33.8182H710.205L716.881 52H714.573L709.139 36.6946H708.997L703.564 52ZM704.416 44.8977H713.72V46.8509H704.416V44.8977ZM718.75 33.8182L724.147 49.1236H724.36L729.758 33.8182H732.066L725.39 52H723.118L716.441 33.8182H718.75ZM734.082 52H731.773L738.45 33.8182H740.722L747.398 52H745.09L739.657 36.6946H739.515L734.082 52ZM734.934 44.8977H744.238V46.8509H734.934V44.8977ZM762.873 52H757.262V33.8182H763.121C764.885 33.8182 766.394 34.1822 767.649 34.9102C768.904 35.6322 769.865 36.6709 770.534 38.0263C771.203 39.3757 771.537 40.9915 771.537 42.8736C771.537 44.7675 771.2 46.3981 770.525 47.7653C769.851 49.1265 768.868 50.1741 767.578 50.908C766.288 51.636 764.719 52 762.873 52ZM759.463 50.0469H762.731C764.234 50.0469 765.48 49.7569 766.468 49.1768C767.456 48.5968 768.193 47.7712 768.679 46.6999C769.164 45.6287 769.407 44.3532 769.407 42.8736C769.407 41.4058 769.167 40.1422 768.688 39.0827C768.208 38.0174 767.492 37.2006 766.539 36.6325C765.586 36.0584 764.4 35.7713 762.979 35.7713H759.463V50.0469ZM775.231 52V33.8182H786.204V35.7713H777.432V41.9148H785.635V43.8679H777.432V50.0469H786.346V52H775.231ZM790.918 33.8182L796.315 49.1236H796.528L801.926 33.8182H804.234L797.558 52H795.286L788.609 33.8182H790.918ZM807.066 52V33.8182H818.039V35.7713H809.268V41.9148H817.471V43.8679H809.268V50.0469H818.182V52H807.066ZM822.008 52V33.8182H824.21V50.0469H832.661V52H822.008ZM850.703 42.9091C850.703 44.8267 850.357 46.4839 849.665 47.8807C848.972 49.2775 848.022 50.3546 846.815 51.1122C845.607 51.8698 844.228 52.2486 842.678 52.2486C841.127 52.2486 839.748 51.8698 838.541 51.1122C837.333 50.3546 836.383 49.2775 835.691 47.8807C834.998 46.4839 834.652 44.8267 834.652 42.9091C834.652 40.9915 834.998 39.3343 835.691 37.9375C836.383 36.5407 837.333 35.4635 838.541 34.706C839.748 33.9484 841.127 33.5696 842.678 33.5696C844.228 33.5696 845.607 33.9484 846.815 34.706C848.022 35.4635 848.972 36.5407 849.665 37.9375C850.357 39.3343 850.703 40.9915 850.703 42.9091ZM848.573 42.9091C848.573 41.3348 848.309 40.006 847.782 38.9229C847.262 37.8398 846.554 37.0201 845.661 36.4638C844.773 35.9074 843.779 35.6293 842.678 35.6293C841.577 35.6293 840.58 35.9074 839.686 36.4638C838.798 37.0201 838.091 37.8398 837.564 38.9229C837.043 40.006 836.783 41.3348 836.783 42.9091C836.783 44.4834 837.043 45.8121 837.564 46.8952C838.091 47.9783 838.798 48.7981 839.686 49.3544C840.58 49.9107 841.577 50.1889 842.678 50.1889C843.779 50.1889 844.773 49.9107 845.661 49.3544C846.554 48.7981 847.262 47.9783 847.782 46.8952C848.309 45.8121 848.573 44.4834 848.573 42.9091ZM854.405 52V33.8182H860.549C861.975 33.8182 863.141 34.0756 864.047 34.5906C864.958 35.0996 865.633 35.7891 866.071 36.6591C866.509 37.5291 866.728 38.4998 866.728 39.571C866.728 40.6423 866.509 41.6159 866.071 42.4918C865.639 43.3678 864.97 44.0662 864.064 44.587C863.159 45.1019 861.999 45.3594 860.584 45.3594H856.181V43.4062H860.513C861.49 43.4062 862.274 43.2376 862.866 42.9002C863.458 42.5629 863.887 42.1071 864.153 41.533C864.425 40.953 864.562 40.299 864.562 39.571C864.562 38.843 864.425 38.192 864.153 37.6179C863.887 37.0438 863.455 36.594 862.857 36.2685C862.259 35.937 861.466 35.7713 860.478 35.7713H856.607V52H854.405ZM870.274 52V33.8182H881.247V35.7713H872.476V41.9148H880.679V43.8679H872.476V50.0469H881.39V52H870.274ZM885.216 52V33.8182H891.359C892.78 33.8182 893.946 34.0608 894.857 34.5462C895.769 35.0256 896.443 35.6855 896.881 36.5259C897.319 37.3664 897.538 38.3222 897.538 39.3935C897.538 40.4647 897.319 41.4147 896.881 42.2433C896.443 43.0719 895.772 43.7229 894.866 44.1964C893.961 44.6639 892.803 44.8977 891.395 44.8977H886.423V42.9091H891.324C892.294 42.9091 893.076 42.767 893.668 42.483C894.265 42.1989 894.697 41.7964 894.964 41.2756C895.236 40.7488 895.372 40.1214 895.372 39.3935C895.372 38.6655 895.236 38.0292 894.964 37.4847C894.691 36.9402 894.256 36.52 893.659 36.2241C893.061 35.9222 892.271 35.7713 891.288 35.7713H887.418V52H885.216ZM893.774 43.8324L898.249 52H895.692L891.288 43.8324H893.774ZM913.409 23.1506V59.0312H911.278V23.1506H913.409ZM939.828 33.8182H942.03V45.8565C942.03 47.0994 941.737 48.2092 941.151 49.1857C940.571 50.1564 939.751 50.9228 938.692 51.4851C937.633 52.0414 936.39 52.3196 934.963 52.3196C933.537 52.3196 932.294 52.0414 931.235 51.4851C930.175 50.9228 929.352 50.1564 928.767 49.1857C928.187 48.2092 927.897 47.0994 927.897 45.8565V33.8182H930.098V45.679C930.098 46.5668 930.294 47.3569 930.684 48.0494C931.075 48.7359 931.631 49.2775 932.353 49.674C933.081 50.0646 933.951 50.2599 934.963 50.2599C935.975 50.2599 936.845 50.0646 937.573 49.674C938.301 49.2775 938.858 48.7359 939.242 48.0494C939.633 47.3569 939.828 46.5668 939.828 45.679V33.8182ZM948.629 33.8182V52H946.427V33.8182H948.629ZM959.186 32.9659L953.327 54.7344H951.409L957.269 32.9659H959.186ZM973.886 33.8182H976.088V45.8565C976.088 47.0994 975.795 48.2092 975.209 49.1857C974.629 50.1564 973.809 50.9228 972.75 51.4851C971.69 52.0414 970.447 52.3196 969.021 52.3196C967.595 52.3196 966.352 52.0414 965.292 51.4851C964.233 50.9228 963.41 50.1564 962.824 49.1857C962.244 48.2092 961.954 47.0994 961.954 45.8565V33.8182H964.156V45.679C964.156 46.5668 964.351 47.3569 964.742 48.0494C965.132 48.7359 965.689 49.2775 966.411 49.674C967.139 50.0646 968.009 50.2599 969.021 50.2599C970.033 50.2599 970.903 50.0646 971.631 49.674C972.359 49.2775 972.915 48.7359 973.3 48.0494C973.691 47.3569 973.886 46.5668 973.886 45.679V33.8182ZM981.55 33.8182L986.237 41.3821H986.379L991.067 33.8182H993.659L987.942 42.9091L993.659 52H991.067L986.379 44.5781H986.237L981.55 52H978.957L984.817 42.9091L978.957 33.8182H981.55ZM1003.56 52V33.8182H1014.46V35.7713H1005.76V41.9148H1013.64V43.8679H1005.76V52H1003.56ZM1020.43 33.8182V52H1018.23V33.8182H1020.43ZM1037.27 39.5C1037.08 38.9022 1036.82 38.3666 1036.5 37.8931C1036.19 37.4137 1035.81 37.0053 1035.37 36.668C1034.94 36.3306 1034.45 36.0732 1033.9 35.8956C1033.35 35.718 1032.75 35.6293 1032.09 35.6293C1031.01 35.6293 1030.03 35.9074 1029.15 36.4638C1028.27 37.0201 1027.57 37.8398 1027.05 38.9229C1026.53 40.006 1026.27 41.3348 1026.27 42.9091C1026.27 44.4834 1026.53 45.8121 1027.06 46.8952C1027.58 47.9783 1028.3 48.7981 1029.19 49.3544C1030.09 49.9107 1031.11 50.1889 1032.23 50.1889C1033.27 50.1889 1034.19 49.967 1034.98 49.5231C1035.78 49.0733 1036.4 48.44 1036.85 47.6232C1037.3 46.8005 1037.52 45.8329 1037.52 44.7202L1038.2 44.8622H1032.73V42.9091H1039.65V44.8622C1039.65 46.3596 1039.33 47.6617 1038.69 48.7685C1038.06 49.8752 1037.18 50.7334 1036.07 51.343C1034.95 51.9467 1033.68 52.2486 1032.23 52.2486C1030.62 52.2486 1029.21 51.8698 1027.99 51.1122C1026.77 50.3546 1025.83 49.2775 1025.15 47.8807C1024.47 46.4839 1024.13 44.8267 1024.13 42.9091C1024.13 41.4709 1024.33 40.1777 1024.71 39.0295C1025.1 37.8754 1025.65 36.8929 1026.36 36.082C1027.07 35.2712 1027.91 34.6497 1028.88 34.2177C1029.85 33.7856 1030.92 33.5696 1032.09 33.5696C1033.05 33.5696 1033.94 33.7146 1034.77 34.0046C1035.6 34.2887 1036.35 34.6941 1037 35.2209C1037.66 35.7417 1038.2 36.3661 1038.64 37.0941C1039.08 37.8162 1039.38 38.6181 1039.55 39.5H1037.27ZM1043.42 33.8182H1046.05L1052.23 48.9105H1052.44L1058.62 33.8182H1061.25V52H1059.19V38.1861H1059.01L1053.33 52H1051.34L1045.66 38.1861H1045.48V52H1043.42V33.8182ZM1066.41 52H1064.1L1070.78 33.8182H1073.05L1079.73 52H1077.42L1071.99 36.6946H1071.84L1066.41 52ZM1067.26 44.8977H1076.57V46.8509H1067.26V44.8977ZM1095.2 52H1089.59V33.8182H1095.45C1097.21 33.8182 1098.72 34.1822 1099.98 34.9102C1101.23 35.6322 1102.19 36.6709 1102.86 38.0263C1103.53 39.3757 1103.87 40.9915 1103.87 42.8736C1103.87 44.7675 1103.53 46.3981 1102.85 47.7653C1102.18 49.1265 1101.2 50.1741 1099.91 50.908C1098.62 51.636 1097.05 52 1095.2 52ZM1091.79 50.0469H1095.06C1096.56 50.0469 1097.81 49.7569 1098.8 49.1768C1099.79 48.5968 1100.52 47.7712 1101.01 46.6999C1101.49 45.6287 1101.74 44.3532 1101.74 42.8736C1101.74 41.4058 1101.5 40.1422 1101.02 39.0827C1100.54 38.0174 1099.82 37.2006 1098.87 36.6325C1097.92 36.0584 1096.73 35.7713 1095.31 35.7713H1091.79V50.0469ZM1107.56 52V33.8182H1118.53V35.7713H1109.76V41.9148H1117.96V43.8679H1109.76V50.0469H1118.67V52H1107.56ZM1123.25 33.8182L1128.64 49.1236H1128.86L1134.26 33.8182H1136.56L1129.89 52H1127.61L1120.94 33.8182H1123.25ZM1139.4 52V33.8182H1150.37V35.7713H1141.6V41.9148H1149.8V43.8679H1141.6V50.0469H1150.51V52H1139.4ZM1154.34 52V33.8182H1156.54V50.0469H1164.99V52H1154.34ZM1183.03 42.9091C1183.03 44.8267 1182.69 46.4839 1181.99 47.8807C1181.3 49.2775 1180.35 50.3546 1179.14 51.1122C1177.94 51.8698 1176.56 52.2486 1175.01 52.2486C1173.46 52.2486 1172.08 51.8698 1170.87 51.1122C1169.66 50.3546 1168.71 49.2775 1168.02 47.8807C1167.33 46.4839 1166.98 44.8267 1166.98 42.9091C1166.98 40.9915 1167.33 39.3343 1168.02 37.9375C1168.71 36.5407 1169.66 35.4635 1170.87 34.706C1172.08 33.9484 1173.46 33.5696 1175.01 33.5696C1176.56 33.5696 1177.94 33.9484 1179.14 34.706C1180.35 35.4635 1181.3 36.5407 1181.99 37.9375C1182.69 39.3343 1183.03 40.9915 1183.03 42.9091ZM1180.9 42.9091C1180.9 41.3348 1180.64 40.006 1180.11 38.9229C1179.59 37.8398 1178.88 37.0201 1177.99 36.4638C1177.1 35.9074 1176.11 35.6293 1175.01 35.6293C1173.91 35.6293 1172.91 35.9074 1172.01 36.4638C1171.13 37.0201 1170.42 37.8398 1169.89 38.9229C1169.37 40.006 1169.11 41.3348 1169.11 42.9091C1169.11 44.4834 1169.37 45.8121 1169.89 46.8952C1170.42 47.9783 1171.13 48.7981 1172.01 49.3544C1172.91 49.9107 1173.91 50.1889 1175.01 50.1889C1176.11 50.1889 1177.1 49.9107 1177.99 49.3544C1178.88 48.7981 1179.59 47.9783 1180.11 46.8952C1180.64 45.8121 1180.9 44.4834 1180.9 42.9091ZM1186.73 52V33.8182H1192.88C1194.3 33.8182 1195.47 34.0756 1196.38 34.5906C1197.29 35.0996 1197.96 35.7891 1198.4 36.6591C1198.84 37.5291 1199.06 38.4998 1199.06 39.571C1199.06 40.6423 1198.84 41.6159 1198.4 42.4918C1197.97 43.3678 1197.3 44.0662 1196.39 44.587C1195.49 45.1019 1194.33 45.3594 1192.91 45.3594H1188.51V43.4062H1192.84C1193.82 43.4062 1194.6 43.2376 1195.2 42.9002C1195.79 42.5629 1196.22 42.1071 1196.48 41.533C1196.75 40.953 1196.89 40.299 1196.89 39.571C1196.89 38.843 1196.75 38.192 1196.48 37.6179C1196.22 37.0438 1195.78 36.594 1195.19 36.2685C1194.59 35.937 1193.8 35.7713 1192.81 35.7713H1188.94V52H1186.73ZM1202.6 52V33.8182H1213.58V35.7713H1204.81V41.9148H1213.01V43.8679H1204.81V50.0469H1213.72V52H1202.6ZM1217.54 52V33.8182H1223.69C1225.11 33.8182 1226.27 34.0608 1227.19 34.5462C1228.1 35.0256 1228.77 35.6855 1229.21 36.5259C1229.65 37.3664 1229.87 38.3222 1229.87 39.3935C1229.87 40.4647 1229.65 41.4147 1229.21 42.2433C1228.77 43.0719 1228.1 43.7229 1227.2 44.1964C1226.29 44.6639 1225.13 44.8977 1223.72 44.8977H1218.75V42.9091H1223.65C1224.62 42.9091 1225.4 42.767 1226 42.483C1226.59 42.1989 1227.03 41.7964 1227.29 41.2756C1227.57 40.7488 1227.7 40.1214 1227.7 39.3935C1227.7 38.6655 1227.57 38.0292 1227.29 37.4847C1227.02 36.9402 1226.59 36.52 1225.99 36.2241C1225.39 35.9222 1224.6 35.7713 1223.62 35.7713H1219.75V52H1217.54ZM1226.1 43.8324L1230.58 52H1228.02L1223.62 43.8324H1226.1Z" fill="#F3E4BB"/>
</svg>
